<svg width="16" height="19" viewBox="0 0 16 19" fill="none" xmlns="http://www.w3.org/2000/svg">
<g id="Contactless Icon" clip-path="url(#clip0_2330_131)">
<path id="Path" d="M11.9609 18.8208C11.6639 18.7348 11.3629 18.3811 11.2997 18.0434C11.2585 17.8235 11.3088 17.6709 11.6235 17.0614C12.8956 14.5982 13.4484 12.3314 13.4484 9.58005C13.4484 6.92107 12.9589 4.85218 11.743 2.37251C11.482 1.84021 11.2684 1.34594 11.2684 1.27448C11.2684 1.01063 11.4889 0.62808 11.7277 0.478031C12.0553 0.272271 12.6041 0.310749 12.8668 0.557661C12.9677 0.652593 13.2301 1.08372 13.4497 1.51545C14.3197 3.22556 14.9159 5.10176 15.2101 7.05462C15.3922 8.26319 15.4285 10.5537 15.283 11.6601C15.0145 13.701 14.4764 15.5221 13.6147 17.3062C13.094 18.3846 12.767 18.8283 12.4934 18.8283C12.4386 18.8283 12.3493 18.8419 12.2949 18.8587C12.2403 18.8752 12.0901 18.8583 11.9609 18.8208ZM8.42027 16.9666C7.9648 16.8339 7.63637 16.2746 7.76801 15.8555C7.79992 15.754 8.01437 15.2867 8.2444 14.8169C9.21871 12.8279 9.62402 10.6958 9.42545 8.60236C9.2622 6.88229 8.95425 5.79748 8.17851 4.21023C7.65804 3.14533 7.63385 2.98028 7.93646 2.55153C8.22422 2.14387 8.94238 2.07776 9.31963 2.42421C9.58113 2.66429 10.3944 4.36444 10.7083 5.32728C11.7472 8.51366 11.5887 11.9342 10.2573 15.0644C9.57534 16.6678 9.09657 17.1636 8.42027 16.9666ZM4.7691 15.0862C4.48772 14.9592 4.24551 14.6614 4.17962 14.3611C4.1394 14.1782 4.20856 13.9759 4.54248 13.299C5.76879 10.8128 5.782 8.41814 4.58285 5.98972C4.05629 4.92319 4.04471 4.71089 4.49009 4.29031C4.70989 4.08277 4.80324 4.04607 5.11193 4.04607C5.62973 4.04607 5.8982 4.3065 6.36094 5.2579C7.07257 6.72125 7.36389 7.99072 7.36152 9.61719C7.35899 11.289 7.08666 12.4366 6.32636 13.9797C5.89093 14.8633 5.67573 15.0965 5.23986 15.1564C5.10688 15.1746 4.8951 15.143 4.7691 15.0862ZM1.36207 13.3347C1.13915 13.2423 0.884632 12.9386 0.808944 12.6746C0.724499 12.3796 0.793657 12.1454 1.12832 11.5946C1.55871 10.8861 1.65888 10.5059 1.65888 9.5799C1.65888 8.65405 1.55871 8.27373 1.12832 7.56524C0.982434 7.32501 0.835954 7.03724 0.80271 6.92567C0.664096 6.45874 1.05278 5.88647 1.57489 5.78842C2.01744 5.70522 2.32138 5.90296 2.72832 6.53881C3.90655 8.37981 3.9064 10.8391 2.72773 12.6645C2.31203 13.3085 1.8484 13.5361 1.36207 13.3347Z" fill="white"/>
</g>
<defs>
<clipPath id="clip0_2330_131">
<rect width="14.6925" height="18.719" fill="white" transform="translate(0.769531 0.209229)"/>
</clipPath>
</defs>
</svg>
