<svg width="48" height="48" viewBox="0 0 48 48" fill="none" xmlns="http://www.w3.org/2000/svg">
<g id="vuesax/bulk/mirroring-screen">
<g id="mirroring-screen">
<path id="Vector" opacity="0.4" d="M4.75 18V16C4.75 10.8942 8.89421 6.75 14 6.75H34C39.1058 6.75 43.25 10.8942 43.25 16V32C43.25 37.1058 39.1058 41.25 34 41.25H32H14C8.89421 41.25 4.75 37.1058 4.75 32V18Z" fill="#167AD8" stroke="#167AD8" stroke-width="1.5"/>
<g id="Group">
<g id="Group_2">
<path id="Vector_2" d="M32.28 30.88C31.54 30.88 30.8999 30.32 30.7999 29.58C29.9399 22.82 25.02 17.9001 18.26 17.0401C17.44 16.9401 16.8599 16.18 16.9599 15.36C17.0599 14.54 17.82 13.96 18.64 14.06C26.78 15.1 32.72 21.0401 33.78 29.2001C33.88 30.0201 33.3 30.78 32.48 30.88C32.42 30.88 32.36 30.88 32.28 30.88Z" fill="#167AD8"/>
</g>
<g id="Group_3">
<path id="Vector_3" d="M26.88 32.6C26.14 32.6 25.5 32.0399 25.4 31.2999C24.78 26.5399 21.32 23.06 16.54 22.44C15.72 22.34 15.14 21.58 15.24 20.76C15.34 19.94 16.1 19.3599 16.92 19.4599C23.08 20.2599 27.58 24.74 28.38 30.92C28.48 31.74 27.9 32.5 27.08 32.6C27.02 32.6 26.94 32.6 26.88 32.6Z" fill="#167AD8"/>
</g>
<g id="Group_4">
<path id="Vector_4" d="M20.7799 33.62C20.0399 33.62 19.3999 33.06 19.2999 32.32C19.0399 30.28 17.5599 28.8001 15.5199 28.5401C14.6999 28.4401 14.12 27.68 14.22 26.86C14.32 26.04 15.0799 25.46 15.8999 25.56C19.2799 26 21.84 28.56 22.28 31.94C22.38 32.76 21.8 33.52 20.98 33.62C20.92 33.62 20.8399 33.62 20.7799 33.62Z" fill="#167AD8"/>
</g>
</g>
</g>
</g>
</svg>
