<svg width="246" height="246" viewBox="0 0 246 246" fill="none" xmlns="http://www.w3.org/2000/svg">
<g id="#000000ff">
<path id="Vector" d="M0.779983 0.779983C23.5931 0.774836 46.4062 0.774836 69.2193 0.779983C69.2219 23.5931 69.2244 46.4062 69.2193 69.2193C46.4062 69.2219 23.5931 69.2244 0.779983 69.2193C0.774836 46.4062 0.774836 23.5931 0.779983 0.779983ZM10.5578 10.5578C10.5526 26.8532 10.5526 43.1461 10.5578 59.4415C26.8532 59.4466 43.1461 59.4466 59.4415 59.4415C59.4466 43.1461 59.4466 26.8532 59.4415 10.5578C43.1461 10.5526 26.8532 10.5526 10.5578 10.5578Z" fill="#1A1A1A"/>
<path id="Vector_2" d="M88.7802 0.775146C92.0378 0.77772 95.2953 0.777719 98.5554 0.777719C98.558 7.29538 98.5503 13.8156 98.558 20.3333C101.816 20.3333 105.073 20.3333 108.331 20.3333C108.333 17.0732 108.331 13.8156 108.336 10.5555C114.853 10.5529 121.371 10.5529 127.889 10.5581C127.889 13.8156 127.889 17.0732 127.889 20.3307C124.629 20.3333 121.371 20.3333 118.114 20.3358C118.106 26.8535 118.116 33.3712 118.111 39.8888C114.851 39.8914 111.593 39.8914 108.336 39.8888C108.333 36.6287 108.328 33.3686 108.333 30.1085C105.073 30.1111 101.813 30.1136 98.5554 30.1111C98.5554 33.3686 98.5554 36.6287 98.5554 39.8888C92.0352 39.8914 85.5175 39.8914 78.9973 39.8863C78.9999 36.6287 78.9999 33.3712 78.9999 30.1136C82.2574 30.111 85.5176 30.1111 88.7802 30.1085C88.7777 26.8509 88.7777 23.5934 88.7777 20.3358C85.5176 20.3333 82.2574 20.3333 78.9973 20.3307C78.9999 17.0732 78.9999 13.8156 78.9999 10.5581C82.2574 10.5555 85.515 10.5555 88.7751 10.5529C88.7777 7.29281 88.7751 4.03526 88.7802 0.775146Z" fill="#1A1A1A"/>
<path id="Vector_3" d="M137.669 0.775146C140.924 0.77772 144.182 0.777719 147.442 0.777719C147.444 4.03526 147.442 7.29538 147.447 10.5529C150.705 10.5555 153.962 10.5555 157.222 10.5581C157.22 13.8156 157.225 17.0732 157.225 20.3307C153.962 20.3333 150.705 20.3384 147.444 20.3333C147.447 23.5934 147.442 26.8535 147.444 30.1136C144.182 30.1111 140.924 30.1111 137.667 30.1111C137.667 20.3333 137.664 10.5529 137.669 0.775146Z" fill="#1A1A1A"/>
<path id="Vector_4" d="M176.78 0.780227C199.593 0.775081 222.406 0.775081 245.22 0.780227C245.222 23.5933 245.225 46.4064 245.22 69.2195C222.406 69.2221 199.593 69.2247 176.78 69.2195C176.775 46.4064 176.775 23.5933 176.78 0.780227ZM186.558 10.558C186.553 26.8534 186.553 43.1463 186.558 59.4417C202.853 59.4469 219.146 59.4469 235.442 59.4417C235.447 43.1463 235.447 26.8534 235.442 10.558C219.146 10.5529 202.853 10.5529 186.558 10.558Z" fill="#1A1A1A"/>
<path id="Vector_5" d="M20.3359 20.3359C30.1111 20.3307 39.8889 20.3307 49.6641 20.3359C49.6692 30.1111 49.6692 39.8889 49.6641 49.6641C39.8889 49.6692 30.1111 49.6692 20.3359 49.6641C20.3307 39.8889 20.3307 30.1111 20.3359 20.3359Z" fill="#1A1A1A"/>
<path id="Vector_6" d="M157.225 20.3308C160.48 20.3308 163.74 20.3334 166.997 20.3334C167.003 26.851 167.003 33.3687 166.997 39.8864C160.48 39.8915 153.962 39.8915 147.444 39.8889C147.442 36.6288 147.444 33.3713 147.444 30.1137C150.702 30.1112 153.959 30.1086 157.222 30.1086C157.214 26.8485 157.22 23.5909 157.225 20.3308Z" fill="#1A1A1A"/>
<path id="Vector_7" d="M196.336 20.3359C206.111 20.3307 215.886 20.3307 225.664 20.3359C225.667 30.1111 225.669 39.8889 225.664 49.6641C215.889 49.6692 206.111 49.6692 196.336 49.6641C196.331 39.8889 196.331 30.1111 196.336 20.3359Z" fill="#1A1A1A"/>
<path id="Vector_8" d="M127.889 30.111C131.146 30.111 134.406 30.1084 137.667 30.111C137.667 33.3686 137.664 36.6287 137.669 39.8888C134.406 39.8888 131.146 39.8888 127.889 39.8888C127.886 36.6287 127.886 33.3686 127.889 30.111Z" fill="#1A1A1A"/>
<path id="Vector_9" d="M98.5555 39.8889C101.813 39.8863 105.073 39.8863 108.336 39.8889C108.331 49.6667 108.336 59.4445 108.331 69.2248C105.073 69.2222 101.813 69.2222 98.5555 69.2222C98.5529 59.4444 98.5555 49.6667 98.5555 39.8889Z" fill="#1A1A1A"/>
<path id="Vector_10" d="M118.111 39.8887C121.369 39.8861 124.629 39.8836 127.889 39.8887C127.889 43.1488 127.889 46.4089 127.889 49.6691C124.629 49.6691 121.369 49.6665 118.111 49.6665C118.109 46.4064 118.106 43.1463 118.111 39.8887Z" fill="#1A1A1A"/>
<path id="Vector_11" d="M137.669 39.8888C140.927 39.8863 144.184 39.8888 147.444 39.8888C147.447 43.1464 147.439 46.4039 147.447 49.664C150.705 49.6666 153.962 49.6666 157.222 49.6692C157.222 52.9267 157.222 56.1843 157.222 59.4418C153.962 59.4444 150.705 59.4495 147.45 59.4444C147.447 62.7045 147.439 65.9646 147.439 69.2273C144.182 69.2196 140.927 69.217 137.672 69.2222C137.669 65.9621 137.661 62.7045 137.661 59.4444C134.404 59.447 131.146 59.4444 127.889 59.4444C127.886 56.1843 127.884 52.9267 127.889 49.6692C131.146 49.6666 134.406 49.664 137.667 49.6666C137.661 46.4065 137.667 43.1464 137.669 39.8888Z" fill="#1A1A1A"/>
<path id="Vector_12" d="M79.0026 49.6665C82.2601 49.6665 85.5176 49.6665 88.7778 49.6665C88.7803 56.1842 88.7803 62.7044 88.7752 69.2221C85.5176 69.2221 82.2575 69.2221 79 69.2221C78.9974 62.7018 78.9974 56.1842 79.0026 49.6665Z" fill="#1A1A1A"/>
<path id="Vector_13" d="M118.114 59.4443C121.371 59.4443 124.629 59.4417 127.889 59.4443C127.884 65.9593 127.886 72.4744 127.891 78.9921C131.149 78.9947 134.406 79.0024 137.667 79.005C137.664 82.2625 137.667 85.5175 137.669 88.7776C131.149 88.7802 124.631 88.7802 118.114 88.775C118.108 78.9972 118.108 69.222 118.114 59.4443Z" fill="#1A1A1A"/>
<path id="Vector_14" d="M157.222 59.4419C160.48 59.4419 163.737 59.4445 166.997 59.4445C167.002 65.9621 166.995 72.4798 167.002 78.9975C170.26 78.9975 173.518 79 176.78 79.0026C176.775 82.2601 176.775 85.5177 176.778 88.7778C166.997 88.7778 157.22 88.7804 147.442 88.7778C147.442 85.5203 147.444 82.2627 147.444 79.0052C150.702 79.0026 153.959 78.9949 157.22 78.9923C157.222 72.4746 157.225 65.9596 157.222 59.4419Z" fill="#1A1A1A"/>
<path id="Vector_15" d="M0.777719 78.9999C17.0757 78.9999 33.3712 78.9973 49.6692 79.0025C49.664 82.26 49.664 85.5176 49.6666 88.7777C43.149 88.7803 36.6287 88.7725 30.1111 88.7803C30.1111 92.0378 30.1111 95.2953 30.1111 98.5555C46.4065 98.5555 62.7045 98.558 79.0025 98.5529C78.9974 95.2928 78.9974 92.0352 79 88.7777C72.4823 88.7751 65.9621 88.7803 59.4444 88.7751C59.4444 85.5176 59.4444 82.2575 59.4444 78.9999C75.7398 78.9999 92.0378 78.9973 108.336 79.0025C108.331 82.26 108.331 85.5176 108.333 88.7751C105.073 88.7777 101.816 88.7751 98.5555 88.7803C98.5529 95.2979 98.5529 101.816 98.5581 108.333C101.816 108.333 105.073 108.333 108.331 108.333C108.333 105.073 108.331 101.816 108.336 98.5555C114.854 98.5529 121.371 98.5529 127.889 98.558C127.889 101.816 127.889 105.073 127.889 108.331C124.629 108.333 121.369 108.331 118.108 108.336C118.108 111.593 118.111 114.851 118.111 118.111C124.629 118.114 131.146 118.106 137.667 118.114C137.667 121.369 137.667 124.626 137.664 127.886C134.407 127.889 131.149 127.894 127.891 127.889C127.881 137.667 127.891 147.444 127.889 157.222C124.629 157.222 121.371 157.214 118.114 157.222C118.101 147.444 118.121 137.667 118.108 127.889C114.848 127.889 111.591 127.889 108.333 127.886C108.331 124.626 108.328 121.369 108.331 118.108C105.071 118.111 101.813 118.114 98.5555 118.111C98.5581 121.369 98.5555 124.629 98.5555 127.889C92.0378 127.894 85.5202 127.889 79.0025 127.886C79.0025 124.626 79 121.369 78.9974 118.114C82.2575 118.111 85.5176 118.106 88.7803 118.111C88.7752 114.848 88.7726 111.588 88.7777 108.328C85.5176 108.333 82.2601 108.336 79 108.333C79 111.591 79 114.851 78.9974 118.114C75.7398 118.111 72.4823 118.111 69.2248 118.111C69.2222 114.851 69.217 111.591 69.2196 108.331C65.9595 108.333 62.6994 108.336 59.4392 108.333C59.4444 111.591 59.447 114.851 59.4444 118.111C62.7045 118.108 65.9646 118.111 69.2248 118.111C69.2222 121.369 69.2196 124.626 69.2196 127.884C65.9621 127.884 62.7019 127.891 59.4444 127.894C59.4444 131.149 59.4444 134.406 59.4444 137.664C56.1843 137.667 52.9242 137.664 49.6666 137.667C49.664 127.886 49.6718 118.108 49.664 108.328C46.4039 108.333 43.1464 108.336 39.8888 108.333C39.894 114.851 39.8837 121.369 39.8888 127.886C36.6287 127.886 33.3686 127.886 30.1111 127.891C30.1085 121.371 30.1162 114.853 30.1085 108.336C23.5908 108.326 17.0732 108.338 10.5555 108.333C10.5504 101.816 10.5606 95.2979 10.5529 88.7828C7.29281 88.7777 4.03526 88.7777 0.775146 88.7751C0.77772 85.515 0.777719 82.2575 0.777719 78.9999Z" fill="#1A1A1A"/>
<path id="Vector_16" d="M186.558 79C189.813 79 193.073 79 196.333 79C196.336 85.5177 196.328 92.0353 196.336 98.553C202.854 98.5581 209.371 98.5504 215.889 98.5581C215.886 101.816 215.886 105.073 215.889 108.333C209.369 108.336 202.851 108.328 196.333 108.336C196.331 111.591 196.331 114.851 196.333 118.109C199.591 118.111 202.851 118.109 206.111 118.114C206.109 121.371 206.114 124.626 206.111 127.886C202.851 127.886 199.591 127.894 196.331 127.889C196.333 131.149 196.336 134.409 196.333 137.672C199.591 137.664 202.851 137.662 206.111 137.667C206.106 134.407 206.109 131.146 206.111 127.886C209.369 127.886 212.626 127.884 215.889 127.889C215.894 134.404 215.889 140.922 215.886 147.439C212.626 147.442 209.369 147.442 206.111 147.447C206.109 153.965 206.106 160.48 206.114 166.997C209.369 167 212.629 166.995 215.889 167C215.889 170.258 215.891 173.515 215.889 176.775C212.626 176.775 209.366 176.78 206.109 176.778C206.111 180.035 206.114 183.295 206.111 186.556C209.369 186.553 212.629 186.553 215.889 186.556C215.889 189.813 215.891 193.071 215.889 196.331C212.629 196.331 209.369 196.336 206.109 196.333C206.111 199.593 206.114 202.854 206.111 206.116C209.369 206.109 212.626 206.106 215.889 206.111C215.884 202.848 215.886 199.588 215.889 196.331C219.146 196.328 222.404 196.331 225.664 196.333C225.667 199.591 225.664 202.851 225.669 206.111C232.184 206.114 238.702 206.106 245.22 206.114C245.222 219.149 245.222 232.184 245.22 245.22C219.146 245.222 193.076 245.222 167.003 245.22C166.997 241.96 167 238.702 166.997 235.444C157.22 235.439 147.444 235.45 137.669 235.444C137.664 232.182 137.661 228.922 137.667 225.664C134.407 225.667 131.146 225.669 127.889 225.667C127.891 228.924 127.889 232.184 127.889 235.444C124.629 235.444 121.371 235.444 118.114 235.444C118.106 228.924 118.114 222.407 118.109 215.889C114.848 215.886 111.591 215.886 108.333 215.889C108.331 222.407 108.336 228.924 108.331 235.442C101.813 235.447 95.298 235.439 88.7803 235.447C88.7778 238.705 88.7778 241.962 88.7752 245.225C85.5151 245.22 82.2575 245.22 79 245.222C79 228.927 78.9974 212.631 79.0026 196.338C82.2601 196.331 85.5202 196.333 88.7803 196.331C88.7778 193.071 88.7778 189.813 88.7778 186.558C85.5176 186.553 82.2601 186.556 79 186.553C78.9974 176.775 78.9974 166.997 79 157.22C82.2601 157.22 85.5176 157.225 88.7778 157.225C88.7726 163.74 88.7829 170.258 88.7778 176.778C92.0353 176.773 95.2954 176.775 98.5555 176.78C98.5555 180.035 98.5581 183.293 98.5581 186.55C101.816 186.55 105.076 186.558 108.338 186.561C108.331 189.813 108.328 193.071 108.333 196.328C105.073 196.328 101.816 196.336 98.5555 196.338C98.5581 199.593 98.5555 202.851 98.553 206.109C95.2954 206.109 92.0379 206.114 88.7829 206.111C88.7675 212.631 88.7726 219.149 88.7829 225.669C92.0379 225.662 95.2954 225.659 98.553 225.669C98.5555 219.146 98.5607 212.629 98.553 206.109C108.331 206.114 118.109 206.109 127.886 206.111C127.886 209.369 127.891 212.629 127.891 215.891C131.146 215.886 134.407 215.884 137.667 215.889C137.664 212.629 137.664 209.369 137.669 206.111C140.927 206.109 144.187 206.111 147.444 206.111C147.437 212.629 147.444 219.146 147.447 225.664C157.222 225.674 166.997 225.656 176.773 225.669C176.773 228.927 176.78 232.187 176.783 235.45C180.035 235.442 183.293 235.439 186.55 235.444C186.55 232.184 186.558 228.924 186.561 225.667C193.076 225.672 199.596 225.659 206.114 225.667C206.106 222.407 206.103 219.149 206.114 215.894C202.854 215.889 199.596 215.884 196.338 215.884C196.333 212.624 196.328 209.364 196.328 206.106C193.071 206.111 189.816 206.114 186.561 206.111C186.556 209.366 186.55 212.624 186.55 215.884C180.035 215.897 173.52 215.894 167.005 215.884C167 212.624 166.997 209.369 166.995 206.114C160.477 206.109 153.962 206.106 147.444 206.111C147.442 199.593 147.444 193.076 147.444 186.561C150.702 186.553 153.962 186.55 157.225 186.553C157.22 183.293 157.217 180.033 157.222 176.773C153.962 176.778 150.702 176.78 147.444 176.778C147.444 180.035 147.444 183.298 147.444 186.561C144.184 186.553 140.927 186.55 137.669 186.553C137.664 180.035 137.662 173.518 137.669 167C144.184 167.005 150.699 167 157.214 166.997C157.23 160.48 157.227 153.965 157.217 147.45C153.957 147.444 150.702 147.442 147.444 147.439C147.444 144.182 147.442 140.924 147.444 137.669C157.222 137.664 167 137.664 176.78 137.669C176.775 140.924 176.775 144.182 176.778 147.442C173.515 147.444 170.258 147.442 166.997 147.447C166.997 150.705 167 153.962 167 157.222C173.518 157.225 180.035 157.225 186.553 157.22C186.558 147.444 186.558 137.667 186.553 127.891C183.295 127.886 180.038 127.889 176.78 127.886C176.775 124.626 176.778 121.371 176.775 118.114C173.515 118.109 170.258 118.114 167 118.111C166.997 114.851 166.997 111.591 167 108.333C170.258 108.328 173.515 108.336 176.775 108.331C176.778 105.071 176.775 101.816 176.78 98.5581C180.035 98.553 183.295 98.5556 186.556 98.553C186.558 92.0353 186.55 85.5177 186.558 79ZM167.003 167.003C166.997 176.778 166.997 186.556 167.003 196.331C176.778 196.336 186.556 196.336 196.331 196.331C196.336 186.556 196.336 176.778 196.331 167.003C186.556 166.997 176.778 166.997 167.003 167.003ZM225.669 215.886C225.664 219.144 225.664 222.404 225.664 225.664C222.404 225.667 219.146 225.664 215.889 225.669C215.886 228.924 215.886 232.182 215.889 235.442C222.407 235.447 228.924 235.447 235.442 235.442C235.447 228.924 235.447 222.407 235.444 215.889C232.184 215.886 228.924 215.886 225.669 215.886Z" fill="#1A1A1A"/>
<path id="Vector_17" d="M206.111 78.9973C209.369 78.9999 212.629 78.9999 215.891 78.9999C215.886 82.26 215.886 85.5176 215.889 88.7802C212.626 88.7777 209.369 88.7777 206.109 88.7777C206.109 85.5176 206.109 82.2574 206.111 78.9973Z" fill="#1A1A1A"/>
<path id="Vector_18" d="M225.669 78.9973C228.924 78.9999 232.182 78.9999 235.444 78.9999C235.447 85.5176 235.439 92.0352 235.447 98.5529C238.702 98.5529 241.962 98.5554 245.222 98.558C245.222 108.333 245.225 118.108 245.22 127.886C241.96 127.889 238.699 127.886 235.442 127.891C235.442 131.149 235.442 134.406 235.444 137.664C238.702 137.667 241.96 137.664 245.222 137.669C245.225 144.187 245.225 150.704 245.22 157.222C241.96 157.22 238.702 157.222 235.447 157.222C235.442 153.962 235.444 150.704 235.442 147.447C232.182 147.442 228.924 147.444 225.667 147.442C225.662 140.924 225.669 134.406 225.664 127.891C222.404 127.889 219.144 127.889 215.889 127.889C215.886 124.629 215.886 121.371 215.889 118.114C222.407 118.106 228.924 118.114 235.444 118.108C235.442 114.851 235.442 111.593 235.444 108.336C232.184 108.331 228.924 108.333 225.667 108.331C225.664 98.5529 225.664 88.7751 225.669 78.9973Z" fill="#1A1A1A"/>
<path id="Vector_19" d="M137.669 88.7778C140.924 88.7752 144.182 88.7778 147.442 88.7778C147.447 92.0353 147.442 95.2954 147.447 98.553C153.965 98.5581 160.482 98.5504 167 98.5581C166.997 101.816 167.003 105.073 167 108.333C163.74 108.333 160.48 108.336 157.222 108.333C157.225 111.593 157.22 114.851 157.222 118.111C153.962 118.111 150.705 118.111 147.447 118.111C147.442 114.851 147.444 111.593 147.442 108.336C144.182 108.331 140.924 108.333 137.667 108.331C137.664 101.813 137.661 95.2954 137.669 88.7778Z" fill="#1A1A1A"/>
<path id="Vector_20" d="M0.777719 108.333C4.03784 108.333 7.29538 108.328 10.5555 108.333C10.5581 111.591 10.5555 114.851 10.5555 118.114C7.29538 118.111 4.03526 118.111 0.775146 118.111C0.77772 114.851 0.777719 111.591 0.777719 108.333Z" fill="#1A1A1A"/>
<path id="Vector_21" d="M157.222 118.111C160.48 118.108 163.74 118.108 167 118.111C167 121.369 167 124.629 167 127.891C163.737 127.889 160.48 127.889 157.222 127.889C157.222 124.629 157.217 121.369 157.222 118.111Z" fill="#1A1A1A"/>
<path id="Vector_22" d="M0.780316 127.886C4.03786 127.886 7.2954 127.889 10.5555 127.889C10.5555 140.927 10.5581 153.965 10.5529 167.002C7.2954 167 4.03786 166.997 0.777743 167C0.777743 153.962 0.77517 140.924 0.780316 127.886Z" fill="#1A1A1A"/>
<path id="Vector_23" d="M20.3333 127.889C23.5934 127.884 26.8509 127.886 30.111 127.891C30.1136 131.149 30.111 134.406 30.111 137.667C26.8509 137.667 23.5908 137.667 20.3307 137.667C20.3333 134.404 20.3333 131.146 20.3333 127.889Z" fill="#1A1A1A"/>
<path id="Vector_24" d="M98.5554 127.889C101.816 127.886 105.073 127.889 108.333 127.886C108.336 134.404 108.333 140.922 108.331 147.442C98.5529 147.45 88.7751 147.442 78.9973 147.444C79.0025 144.184 78.9999 140.924 79.0025 137.667C85.5176 137.672 92.0352 137.661 98.5554 137.667C98.5477 134.406 98.5554 131.146 98.5554 127.889Z" fill="#1A1A1A"/>
<path id="Vector_25" d="M137.664 127.886C140.924 127.886 144.184 127.889 147.444 127.889C147.444 131.149 147.444 134.406 147.444 137.669C144.184 137.667 140.924 137.661 137.669 137.664C137.669 134.404 137.664 131.144 137.664 127.886Z" fill="#1A1A1A"/>
<path id="Vector_26" d="M30.1111 137.667C36.6287 137.664 43.1464 137.667 49.6666 137.667C49.6666 140.924 49.6666 144.184 49.6692 147.444C43.149 147.442 36.6287 147.444 30.1111 147.444C30.1085 144.184 30.1085 140.924 30.1111 137.667Z" fill="#1A1A1A"/>
<path id="Vector_27" d="M59.4443 137.664C62.7019 137.664 65.962 137.667 69.2221 137.669C69.217 140.927 69.2221 144.184 69.2247 147.444C65.962 147.442 62.7019 147.442 59.4418 147.444C59.4443 144.184 59.4418 140.924 59.4443 137.664Z" fill="#1A1A1A"/>
<path id="Vector_28" d="M20.3333 147.444C23.5934 147.442 26.8509 147.442 30.111 147.444C30.1136 150.702 30.111 153.962 30.111 157.222C26.8509 157.222 23.5908 157.222 20.3307 157.222C20.3333 153.959 20.3333 150.702 20.3333 147.444Z" fill="#1A1A1A"/>
<path id="Vector_29" d="M49.6691 147.445C52.9267 147.445 56.1842 147.442 59.4418 147.445C59.4443 150.702 59.4495 153.962 59.4443 157.222C62.7045 157.217 65.962 157.22 69.2221 157.222C69.2247 160.48 69.2221 163.737 69.2221 166.997C56.1842 167 43.1463 167.003 30.111 166.997C30.111 163.737 30.1084 160.48 30.111 157.222C36.6287 157.225 43.1463 157.225 49.6666 157.22C49.6614 153.96 49.6666 150.702 49.6691 147.445Z" fill="#1A1A1A"/>
<path id="Vector_30" d="M69.2248 147.445C72.4823 147.445 75.7399 147.442 78.9974 147.445C79 150.702 79 153.96 79 157.22C75.7399 157.22 72.4823 157.227 69.2222 157.222C69.2222 153.962 69.2196 150.702 69.2248 147.445Z" fill="#1A1A1A"/>
<path id="Vector_31" d="M98.5581 157.222C101.813 157.225 105.071 157.222 108.328 157.217C108.331 160.477 108.338 163.734 108.341 166.997C114.856 167 121.371 167.005 127.889 167C127.894 173.517 127.889 180.038 127.886 186.558C124.629 186.55 121.371 186.548 118.116 186.558C118.114 183.295 118.106 180.038 118.106 176.78C111.588 176.775 105.071 176.772 98.5555 176.78C98.5529 170.26 98.553 163.74 98.5581 157.222Z" fill="#1A1A1A"/>
<path id="Vector_32" d="M127.889 157.222C131.146 157.22 134.406 157.225 137.667 157.222C137.659 160.48 137.667 163.738 137.669 167C134.407 167 131.146 167 127.889 167C127.886 163.738 127.889 160.48 127.889 157.222Z" fill="#1A1A1A"/>
<path id="Vector_33" d="M215.889 157.22C219.146 157.22 222.407 157.22 225.669 157.222C225.664 160.48 225.664 163.74 225.667 167.003C222.404 166.995 219.146 167.003 215.889 167C215.884 163.74 215.884 160.48 215.889 157.22Z" fill="#1A1A1A"/>
<path id="Vector_34" d="M0.780349 176.78C23.5934 176.775 46.4065 176.775 69.2196 176.78C69.2222 199.593 69.2248 222.406 69.2196 245.22C46.4065 245.222 23.5934 245.225 0.780349 245.22C0.775203 222.406 0.775203 199.593 0.780349 176.78ZM10.5581 186.558C10.553 202.853 10.553 219.146 10.5581 235.442C26.8536 235.447 43.1464 235.447 59.4419 235.442C59.447 219.146 59.447 202.853 59.4419 186.558C43.1464 186.553 26.8536 186.553 10.5581 186.558Z" fill="#1A1A1A"/>
<path id="Vector_35" d="M176.778 176.775C180.035 176.775 183.295 176.778 186.558 176.778C186.553 180.036 186.553 183.296 186.556 186.558C183.293 186.553 180.035 186.553 176.775 186.556C176.775 183.293 176.778 180.036 176.778 176.775Z" fill="#1A1A1A"/>
<path id="Vector_36" d="M215.889 176.775C225.667 176.778 235.444 176.773 245.225 176.781C245.22 180.036 245.22 183.296 245.222 186.556C235.444 186.558 225.667 186.556 215.889 186.556C215.886 183.296 215.886 180.036 215.889 176.775Z" fill="#1A1A1A"/>
<path id="Vector_37" d="M20.3359 196.336C30.1111 196.331 39.8889 196.331 49.6641 196.336C49.6692 206.111 49.6692 215.886 49.6641 225.664C39.8889 225.667 30.1111 225.669 20.3359 225.664C20.3307 215.889 20.3307 206.111 20.3359 196.336Z" fill="#1A1A1A"/>
<path id="Vector_38" d="M127.891 196.333C131.146 196.336 134.406 196.333 137.664 196.331C137.661 199.591 137.664 202.848 137.669 206.111C134.406 206.108 131.146 206.108 127.886 206.111C127.889 202.848 127.889 199.591 127.891 196.333Z" fill="#1A1A1A"/>
<path id="Vector_39" d="M127.889 235.444C131.146 235.442 134.407 235.442 137.669 235.444C137.667 238.702 137.664 241.962 137.667 245.225C134.407 245.22 131.146 245.22 127.889 245.222C127.889 241.959 127.884 238.702 127.889 235.444Z" fill="#1A1A1A"/>
</g>
</svg>
