<svg width="48" height="48" viewBox="0 0 48 48" fill="none" xmlns="http://www.w3.org/2000/svg">
<g id="vuesax/bulk/scan-barcode">
<g id="scan-barcode">
<path id="Vector" opacity="0.4" d="M4 18.75C3.59421 18.75 3.25 18.4058 3.25 18V13C3.25 7.61514 7.63328 3.25 13 3.25H18C18.4058 3.25 18.75 3.59421 18.75 4C18.75 4.40579 18.4058 4.75 18 4.75H13C8.44579 4.75 4.75 8.44579 4.75 13V18C4.75 18.4058 4.40579 18.75 4 18.75Z" fill="#167AD8" stroke="#167AD8" stroke-width="1.5"/>
<path id="Vector_2" d="M44 18.75C43.5942 18.75 43.25 18.4058 43.25 18V13C43.25 8.44579 39.5542 4.75 35 4.75H30C29.5942 4.75 29.25 4.40579 29.25 4C29.25 3.59421 29.5942 3.25 30 3.25H35C40.3667 3.25 44.75 7.61514 44.75 13V18C44.75 18.4058 44.4058 18.75 44 18.75Z" fill="#167AD8" stroke="#167AD8" stroke-width="1.5"/>
<path id="Vector_3" opacity="0.4" d="M35 45.5H32C31.18 45.5 30.5 44.82 30.5 44C30.5 43.18 31.18 42.5 32 42.5H35C39.14 42.5 42.5 39.14 42.5 35V32C42.5 31.18 43.18 30.5 44 30.5C44.82 30.5 45.5 31.18 45.5 32V35C45.5 40.8 40.78 45.5 35 45.5Z" fill="#167AD8"/>
<path id="Vector_4" d="M18 45.5H13C7.22 45.5 2.5 40.8 2.5 35V30C2.5 29.18 3.18 28.5 4 28.5C4.82 28.5 5.5 29.18 5.5 30V35C5.5 39.14 8.86 42.5 13 42.5H18C18.82 42.5 19.5 43.18 19.5 44C19.5 44.82 18.82 45.5 18 45.5Z" fill="#167AD8"/>
<path id="Vector_5" d="M18 10.5H14C11.72 10.5 10.5 11.7 10.5 14V18C10.5 20.3 11.72 21.5 14 21.5H18C20.28 21.5 21.5 20.3 21.5 18V14C21.5 11.7 20.28 10.5 18 10.5Z" fill="#167AD8"/>
<path id="Vector_6" opacity="0.4" d="M34 10.5H30C27.72 10.5 26.5 11.7 26.5 14V18C26.5 20.3 27.72 21.5 30 21.5H34C36.28 21.5 37.5 20.3 37.5 18V14C37.5 11.7 36.28 10.5 34 10.5Z" fill="#167AD8"/>
<path id="Vector_7" opacity="0.4" d="M18 26.5H14C11.72 26.5 10.5 27.7 10.5 30V34C10.5 36.3 11.72 37.5 14 37.5H18C20.28 37.5 21.5 36.3 21.5 34V30C21.5 27.7 20.28 26.5 18 26.5Z" fill="#167AD8"/>
<path id="Vector_8" d="M34 26.5H30C27.72 26.5 26.5 27.7 26.5 30V34C26.5 36.3 27.72 37.5 30 37.5H34C36.28 37.5 37.5 36.3 37.5 34V30C37.5 27.7 36.28 26.5 34 26.5Z" fill="#167AD8"/>
</g>
</g>
</svg>
