<svg width="163" height="120" viewBox="0 0 163 120" fill="none" xmlns="http://www.w3.org/2000/svg">
<g id="logo 1">
<path id="Vector" d="M75.0813 4.66663H79.4186C89.2425 5.27239 98.3743 10.9344 103.515 19.2791C113.215 15.0758 125.399 18.3643 131.825 26.7089C136.57 32.235 136.582 33.873 137.336 43.2499C137.324 44.1153 137.348 42.3969 137.336 43.2499C146.591 46.0191 152.436 55.563 153.128 64.8843C150.867 63.1164 147.704 60.2978 145.85 59.1234C145.387 58.907 144.46 57.9798 144.46 57.9798C140.753 52.4167 134.333 49.7032 129.539 45.0301C131.466 34.7198 122.532 24.0634 111.918 24.9782C107.457 25.893 102.934 26.2144 98.399 25.621C95.2727 18.7351 88.6988 13.3327 81.0868 12.4674C73.8456 11.3424 66.1596 13.9879 61.2909 19.4769C56.6323 24.2735 56.1874 31.3449 52.2208 36.6113C45.9064 34.4726 38.4551 35.3132 33.5741 40.1346C29.0143 44.14 28.5571 50.5562 26.0363 55.7113C16.7315 59.2346 10.6024 71.424 16.3608 80.3497C20.315 84.9486 24.8871 88.9788 29.0885 93.3551C32.8945 93.4169 36.7004 93.3922 40.5064 93.454C35.9714 88.1134 33.6606 80.7453 35.1929 73.81C37.0093 63.9447 46.1165 55.8473 56.2616 55.7855C64.2689 55.1674 72.128 59.4695 76.4159 66.17C84.312 51.6811 108.037 52.6949 115.106 67.4928C113.66 61.5959 122.755 60.8417 124.732 56.8363C131.479 55.4517 139.152 54.8583 145.047 59.1234C146.876 60.6439 149.557 63.0794 150.947 64.0065L152.337 65.3973C153.758 69.9591 156.255 73.9707 155.773 78.9157C155.748 90.3386 145.64 100.698 134.173 100.735C127.092 101.292 120.357 97.7561 115.662 92.6381C116.008 93.1944 116.712 94.2946 117.058 94.8386C116.91 98.0775 117.454 101.391 116.762 104.568C113.932 107.72 110.694 110.502 107.877 113.667C105.702 112.282 104.034 110.279 102.242 108.462C105.01 104.889 111.04 102.293 109.594 96.9155C110.311 95.8028 111.028 94.6779 111.72 93.5529C109.446 94.3812 108.606 97.0515 106.345 97.9416C96.5949 103.628 82.8292 100.562 76.7248 90.9691C73.166 93.5281 70.6204 97.5459 66.2337 98.9553C60.9449 101.7 54.8776 100.093 49.2551 101.094C49.1687 100.525 48.9833 99.3632 48.8844 98.7946C48.8103 99.3509 48.6373 100.476 48.5508 101.032C40.8894 100.55 33.2034 101.168 25.542 100.686C22.6505 97.4965 19.3759 94.6531 16.5955 91.3647C17.5223 90.623 18.4367 89.8812 19.3635 89.1271C17.9301 88.9911 16.8427 89.5845 16.1013 90.9073C11.0472 87.0131 7.16714 81.4747 6.8335 74.9226V71.6589C7.51313 62.0285 14.1118 53.5232 22.7123 49.4683L20.9452 49.6413C22.1315 36.2899 35.5265 26.0537 48.7238 27.9823C51.4053 15.5456 62.5513 6.03886 75.0813 4.66663ZM53.2465 63.648C44.5224 65.6755 39.4684 76.4556 43.5091 84.4665C46.2771 91.0433 54.2103 94.7149 61.019 92.7369C69.0882 91.068 74.414 81.586 71.6708 73.81C69.5825 66.1947 60.8213 61.2373 53.2465 63.648ZM91.5038 63.5368C85.0781 65.0573 80.469 71.1521 79.9006 77.5929C79.8264 85.1464 85.8072 92.5886 93.5551 93.1449C102.44 94.5295 111.016 86.3826 110.361 77.494C110.188 68.3087 100.376 60.9283 91.5038 63.5368ZM126.647 64.5999C121 67.1219 118.108 73.3649 117.515 79.2248C119.27 80.597 118.294 83.3909 119.789 85.0351C122.891 91.5749 131.071 94.9004 137.88 92.5021C146.184 90.2274 150.743 79.8923 147.049 72.1411C143.996 64.4763 133.963 60.7428 126.647 64.5999Z" fill="white"/>
<path id="Vector_2" d="M109.833 45.3981C110.925 42.9954 113.308 41.4812 115.139 39.6666C118.299 42.9328 121.598 46.0739 124.758 49.3526C124.67 51.5426 124.771 53.7201 124.833 55.9101C123.09 58.7633 119.905 60.2275 117.02 61.6666C117.058 58.6132 117.058 55.5597 117.045 52.5062C114.612 50.1661 112.417 47.5756 109.833 45.3981Z" fill="white"/>
<path id="Vector_3" d="M34.8335 53.8458C36.0364 51.7302 38.1385 50.3082 39.9125 48.6666C41.5893 50.366 43.7035 51.7649 44.8335 53.9036C43.2053 55.4874 40.6051 57.3603 39.5723 58.6666C38.4058 56.7244 36.5103 55.3487 34.8335 53.8458Z" fill="white"/>
<path id="Vector_4" d="M26.8335 61.7921C28.4426 59.9641 30.1231 58.1839 32.0302 56.6666C33.52 58.3393 35.1291 59.9163 36.8335 61.3859C35.4747 63.393 33.6035 64.9342 31.9348 66.6666C30.0278 65.2688 28.5975 63.3572 26.8335 61.7921Z" fill="white"/>
</g>
</svg>
